<svg width="178" height="76" viewBox="0 0 178 76" fill="none" xmlns="http://www.w3.org/2000/svg">
<path d="M33.744 11.043C34.504 11.043 35.15 11.29 35.682 11.784C36.252 12.278 36.537 12.886 36.537 13.608C36.537 13.988 36.442 14.406 36.252 14.862L21.717 49.233C21.451 49.803 21.071 50.24 20.577 50.544C20.083 50.848 19.57 51 19.038 51C18.544 50.962 18.069 50.81 17.613 50.544C17.195 50.24 16.853 49.822 16.587 49.29L2.052 14.862C1.9 14.558 1.824 14.159 1.824 13.665C1.824 12.867 2.109 12.221 2.679 11.727C3.249 11.233 3.876 10.986 4.56 10.986C5.7 10.986 6.536 11.594 7.068 12.81L19.494 42.165L31.236 12.753C31.502 12.221 31.844 11.803 32.262 11.499C32.718 11.195 33.212 11.043 33.744 11.043ZM51.1539 20.448C54.1559 20.448 56.6449 20.923 58.6209 21.873C60.6349 22.823 61.6419 24.039 61.6419 25.521C61.6419 26.167 61.4329 26.756 61.0149 27.288C60.5969 27.782 60.0649 28.029 59.4189 28.029C58.9249 28.029 58.5259 27.953 58.2219 27.801C57.9559 27.649 57.5759 27.402 57.0819 27.06C56.8539 26.832 56.4929 26.566 55.9989 26.262C55.5429 26.034 54.8969 25.844 54.0609 25.692C53.2249 25.54 52.4649 25.464 51.7809 25.464C49.8049 25.464 48.0569 25.92 46.5369 26.832C45.0169 27.744 43.8389 29.017 43.0029 30.651C42.1669 32.247 41.7489 34.033 41.7489 36.009C41.7489 38.023 42.1479 39.828 42.9459 41.424C43.7819 43.02 44.9409 44.274 46.4229 45.186C47.9049 46.098 49.5959 46.554 51.4959 46.554C53.4719 46.554 55.0679 46.25 56.2839 45.642C56.5499 45.49 56.9109 45.243 57.3669 44.901C57.7469 44.597 58.0699 44.369 58.3359 44.217C58.6399 44.065 59.0009 43.989 59.4189 43.989C60.1789 43.989 60.7679 44.236 61.1859 44.73C61.6419 45.186 61.8699 45.794 61.8699 46.554C61.8699 47.352 61.3569 48.15 60.3309 48.948C59.3429 49.708 57.9939 50.335 56.2839 50.829C54.6119 51.323 52.8069 51.57 50.8689 51.57C47.9809 51.57 45.4349 50.905 43.2309 49.575C41.0269 48.207 39.3169 46.345 38.1009 43.989C36.9229 41.595 36.3339 38.935 36.3339 36.009C36.3339 33.083 36.9609 30.442 38.2149 28.086C39.4689 25.692 41.2169 23.83 43.4589 22.5C45.7009 21.132 48.2659 20.448 51.1539 20.448ZM79.4642 20.619C86.1522 20.619 89.4962 24.761 89.4962 33.045V48.264C89.4962 49.024 89.2302 49.67 88.6982 50.202C88.2042 50.734 87.5582 51 86.7602 51C86.0002 51 85.3542 50.734 84.8222 50.202C84.3282 49.67 84.0812 49.024 84.0812 48.264V33.045C84.0812 28.105 81.9912 25.635 77.8112 25.635C75.5692 25.635 73.7072 26.357 72.2252 27.801C70.7432 29.207 70.0022 30.955 70.0022 33.045V48.264C70.0022 49.024 69.7362 49.67 69.2042 50.202C68.7102 50.734 68.0642 51 67.2662 51C66.4682 51 65.8222 50.753 65.3282 50.259C64.8342 49.727 64.5872 49.062 64.5872 48.264V11.556C64.5872 10.796 64.8342 10.15 65.3282 9.618C65.8602 9.086 66.5062 8.82 67.2662 8.82C68.0642 8.82 68.7102 9.086 69.2042 9.618C69.7362 10.15 70.0022 10.796 70.0022 11.556V25.977C70.9522 24.495 72.2822 23.241 73.9922 22.215C75.7022 21.151 77.5262 20.619 79.4642 20.619ZM118.971 20.733C119.769 20.733 120.415 20.999 120.909 21.531C121.441 22.025 121.707 22.69 121.707 23.526V48.264C121.707 49.024 121.441 49.67 120.909 50.202C120.415 50.734 119.769 51 118.971 51C118.173 51 117.527 50.753 117.033 50.259C116.539 49.727 116.292 49.062 116.292 48.264V46.782C115.304 48.112 113.955 49.252 112.245 50.202C110.535 51.114 108.692 51.57 106.716 51.57C104.132 51.57 101.776 50.905 99.648 49.575C97.558 48.245 95.905 46.402 94.689 44.046C93.511 41.652 92.922 38.973 92.922 36.009C92.922 33.045 93.511 30.385 94.689 28.029C95.905 25.635 97.558 23.773 99.648 22.443C101.738 21.113 104.037 20.448 106.545 20.448C108.559 20.448 110.421 20.866 112.131 21.702C113.879 22.538 115.266 23.602 116.292 24.894V23.526C116.292 22.728 116.539 22.063 117.033 21.531C117.527 20.999 118.173 20.733 118.971 20.733ZM107.343 46.554C109.129 46.554 110.706 46.098 112.074 45.186C113.48 44.274 114.563 43.02 115.323 41.424C116.121 39.828 116.52 38.023 116.52 36.009C116.52 34.033 116.121 32.247 115.323 30.651C114.563 29.055 113.48 27.801 112.074 26.889C110.706 25.939 109.129 25.464 107.343 25.464C105.557 25.464 103.961 25.92 102.555 26.832C101.187 27.744 100.104 28.998 99.306 30.594C98.546 32.19 98.166 33.995 98.166 36.009C98.166 38.023 98.546 39.828 99.306 41.424C100.104 43.02 101.187 44.274 102.555 45.186C103.961 46.098 105.557 46.554 107.343 46.554ZM135.003 26.433V43.419C135.003 45.319 135.858 46.269 137.568 46.269C137.834 46.269 138.195 46.212 138.651 46.098C139.107 45.946 139.468 45.87 139.734 45.87C140.228 45.87 140.646 46.079 140.988 46.497C141.33 46.915 141.501 47.447 141.501 48.093C141.501 48.891 141.045 49.575 140.133 50.145C139.221 50.715 138.195 51 137.055 51C135.801 51 134.642 50.867 133.578 50.601C132.552 50.335 131.621 49.67 130.785 48.606C129.987 47.504 129.588 45.851 129.588 43.647V26.433H126.282C125.56 26.433 124.952 26.205 124.458 25.749C124.002 25.255 123.774 24.647 123.774 23.925C123.774 23.203 124.002 22.614 124.458 22.158C124.952 21.702 125.56 21.474 126.282 21.474H129.588V16.686C129.588 15.926 129.835 15.28 130.329 14.748C130.861 14.216 131.526 13.95 132.324 13.95C133.084 13.95 133.711 14.216 134.205 14.748C134.737 15.28 135.003 15.926 135.003 16.686V21.474H139.734C140.456 21.474 141.045 21.721 141.501 22.215C141.995 22.671 142.242 23.26 142.242 23.982C142.242 24.704 141.995 25.293 141.501 25.749C141.045 26.205 140.456 26.433 139.734 26.433H135.003Z" fill="white"/>
<path d="M124.42 68.55C124.88 68.55 125.297 68.67 125.67 68.91C126.043 69.1433 126.337 69.47 126.55 69.89C126.77 70.31 126.88 70.7867 126.88 71.32C126.88 71.8533 126.773 72.3333 126.56 72.76C126.347 73.18 126.053 73.51 125.68 73.75C125.313 73.9833 124.907 74.1 124.46 74.1C124.14 74.1 123.837 74.0367 123.55 73.91C123.27 73.7767 123.037 73.6167 122.85 73.43V73.49C122.85 73.6633 122.793 73.81 122.68 73.93C122.567 74.0433 122.423 74.1 122.25 74.1C122.077 74.1 121.933 74.0433 121.82 73.93C121.707 73.8167 121.65 73.67 121.65 73.49V67.21C121.65 67.0367 121.707 66.8933 121.82 66.78C121.933 66.66 122.077 66.6 122.25 66.6C122.423 66.6 122.567 66.66 122.68 66.78C122.793 66.8933 122.85 67.0367 122.85 67.21V69.3C123.01 69.1 123.233 68.9267 123.52 68.78C123.807 68.6267 124.107 68.55 124.42 68.55ZM124.27 73C124.697 73 125.047 72.84 125.32 72.52C125.593 72.2 125.73 71.8 125.73 71.32C125.73 70.84 125.593 70.4433 125.32 70.13C125.053 69.81 124.703 69.65 124.27 69.65C123.837 69.65 123.483 69.81 123.21 70.13C122.937 70.4433 122.8 70.84 122.8 71.32C122.8 71.8 122.937 72.2 123.21 72.52C123.483 72.84 123.837 73 124.27 73ZM131.85 68.65C132.024 68.65 132.167 68.71 132.28 68.83C132.394 68.9433 132.45 69.0867 132.45 69.26V73.51C132.45 74.3767 132.217 75.0067 131.75 75.4C131.284 75.8 130.66 76 129.88 76C129.654 76 129.42 75.98 129.18 75.94C128.947 75.9067 128.757 75.86 128.61 75.8C128.284 75.66 128.12 75.4667 128.12 75.22C128.12 75.1733 128.13 75.12 128.15 75.06C128.19 74.9133 128.257 74.8 128.35 74.72C128.45 74.6467 128.557 74.61 128.67 74.61C128.737 74.61 128.8 74.62 128.86 74.64C128.907 74.66 128.987 74.6933 129.1 74.74C129.22 74.7867 129.344 74.8233 129.47 74.85C129.604 74.8833 129.74 74.9 129.88 74.9C130.354 74.9 130.7 74.7967 130.92 74.59C131.147 74.39 131.26 74.0433 131.26 73.55V73.45C130.914 73.8833 130.374 74.1 129.64 74.1C129.294 74.1 128.987 74.02 128.72 73.86C128.454 73.6933 128.247 73.4667 128.1 73.18C127.954 72.8867 127.88 72.5533 127.88 72.18V69.26C127.88 69.0867 127.937 68.9433 128.05 68.83C128.164 68.71 128.307 68.65 128.48 68.65C128.654 68.65 128.797 68.71 128.91 68.83C129.024 68.9433 129.08 69.0867 129.08 69.26V71.82C129.08 72.24 129.17 72.5433 129.35 72.73C129.537 72.91 129.807 73 130.16 73C130.507 73 130.774 72.9 130.96 72.7C131.154 72.4933 131.25 72.2 131.25 71.82V69.26C131.25 69.0867 131.307 68.9433 131.42 68.83C131.534 68.71 131.677 68.65 131.85 68.65ZM140.662 68.66C140.822 68.66 140.956 68.7133 141.062 68.82C141.169 68.92 141.222 69.0467 141.222 69.2C141.222 69.28 141.196 69.38 141.142 69.5L139.272 73.62C139.226 73.7333 139.156 73.8233 139.062 73.89C138.976 73.9567 138.876 73.9933 138.762 74L138.672 74.01C138.559 74.01 138.452 73.9767 138.352 73.91C138.259 73.8367 138.186 73.74 138.132 73.62L136.272 69.5C136.226 69.3933 136.202 69.2867 136.202 69.18C136.202 69.0467 136.259 68.9267 136.372 68.82C136.486 68.7067 136.626 68.65 136.792 68.65C136.919 68.65 137.036 68.6833 137.142 68.75C137.249 68.8167 137.329 68.91 137.382 69.03L138.762 72.19L140.132 69.04C140.186 68.9133 140.259 68.8167 140.352 68.75C140.446 68.6833 140.549 68.6533 140.662 68.66ZM143.298 73.39C143.298 73.5633 143.241 73.71 143.128 73.83C143.014 73.9433 142.871 74 142.698 74C142.524 74 142.381 73.9433 142.268 73.83C142.154 73.71 142.098 73.5633 142.098 73.39V69.26C142.098 69.0867 142.154 68.9433 142.268 68.83C142.381 68.71 142.524 68.65 142.698 68.65C142.871 68.65 143.014 68.71 143.128 68.83C143.241 68.9433 143.298 69.0867 143.298 69.26V73.39ZM142.688 68C142.461 68 142.301 67.9633 142.208 67.89C142.114 67.8167 142.068 67.6867 142.068 67.5V67.31C142.068 67.1233 142.118 66.9933 142.218 66.92C142.318 66.8467 142.478 66.81 142.698 66.81C142.931 66.81 143.094 66.8467 143.188 66.92C143.281 66.9933 143.328 67.1233 143.328 67.31V67.5C143.328 67.6933 143.278 67.8267 143.178 67.9C143.084 67.9667 142.921 68 142.688 68ZM147.941 72.9C148.101 72.9 148.234 72.9533 148.341 73.06C148.448 73.16 148.501 73.29 148.501 73.45C148.501 73.6033 148.448 73.7333 148.341 73.84C148.234 73.9467 148.101 74 147.941 74H144.721C144.568 74 144.438 73.9467 144.331 73.84C144.231 73.7267 144.181 73.6067 144.181 73.48C144.181 73.3667 144.194 73.2733 144.221 73.2C144.248 73.12 144.298 73.03 144.371 72.93L146.751 69.85H144.811C144.651 69.85 144.518 69.7967 144.411 69.69C144.304 69.5833 144.251 69.45 144.251 69.29C144.251 69.1367 144.304 69.01 144.411 68.91C144.518 68.8033 144.651 68.75 144.811 68.75H147.891C148.038 68.75 148.161 68.8033 148.261 68.91C148.368 69.01 148.421 69.1367 148.421 69.29C148.421 69.39 148.411 69.4767 148.391 69.55C148.371 69.6167 148.324 69.6967 148.251 69.79L145.851 72.9H147.941ZM153.607 66.6C153.78 66.6 153.924 66.6567 154.037 66.77C154.15 66.8833 154.207 67.03 154.207 67.21V73.39C154.207 73.5633 154.15 73.71 154.037 73.83C153.924 73.9433 153.78 74 153.607 74C153.434 74 153.29 73.9433 153.177 73.83C153.07 73.7167 153.014 73.5733 153.007 73.4C152.84 73.5933 152.614 73.76 152.327 73.9C152.047 74.0333 151.75 74.1 151.437 74.1C150.977 74.1 150.56 73.9833 150.187 73.75C149.814 73.51 149.517 73.18 149.297 72.76C149.084 72.34 148.977 71.8633 148.977 71.33C148.977 70.7967 149.084 70.32 149.297 69.9C149.51 69.4733 149.8 69.1433 150.167 68.91C150.54 68.67 150.95 68.55 151.397 68.55C151.717 68.55 152.017 68.61 152.297 68.73C152.577 68.8433 152.814 68.99 153.007 69.17V67.21C153.007 67.0367 153.064 66.8933 153.177 66.78C153.29 66.66 153.434 66.6 153.607 66.6ZM151.587 73C152.02 73 152.374 72.8433 152.647 72.53C152.92 72.21 153.057 71.81 153.057 71.33C153.057 70.85 152.92 70.45 152.647 70.13C152.374 69.81 152.02 69.65 151.587 69.65C151.16 69.65 150.81 69.81 150.537 70.13C150.264 70.45 150.127 70.85 150.127 71.33C150.127 71.81 150.26 72.21 150.527 72.53C150.8 72.8433 151.154 73 151.587 73ZM159.837 68.55C160.011 68.55 160.154 68.6067 160.267 68.72C160.381 68.8333 160.437 68.98 160.437 69.16V73.39C160.437 73.5633 160.381 73.71 160.267 73.83C160.154 73.9433 160.011 74 159.837 74C159.664 74 159.521 73.9433 159.407 73.83C159.301 73.7167 159.244 73.5733 159.237 73.4C159.071 73.5933 158.844 73.76 158.557 73.9C158.277 74.0333 157.981 74.1 157.667 74.1C157.207 74.1 156.791 73.9833 156.417 73.75C156.044 73.51 155.747 73.18 155.527 72.76C155.314 72.34 155.207 71.8633 155.207 71.33C155.207 70.7967 155.314 70.32 155.527 69.9C155.741 69.4733 156.031 69.1433 156.397 68.91C156.771 68.67 157.181 68.55 157.627 68.55C157.947 68.55 158.247 68.61 158.527 68.73C158.807 68.8433 159.044 68.99 159.237 69.17V69.16C159.237 68.9867 159.294 68.8433 159.407 68.73C159.521 68.61 159.664 68.55 159.837 68.55ZM157.817 73C158.251 73 158.604 72.8433 158.877 72.53C159.151 72.21 159.287 71.81 159.287 71.33C159.287 70.85 159.151 70.45 158.877 70.13C158.604 69.81 158.251 69.65 157.817 69.65C157.391 69.65 157.041 69.81 156.767 70.13C156.494 70.45 156.357 70.85 156.357 71.33C156.357 71.81 156.491 72.21 156.757 72.53C157.031 72.8433 157.384 73 157.817 73ZM163.038 73.39C163.038 73.5633 162.978 73.71 162.858 73.83C162.745 73.9433 162.601 74 162.428 74C162.261 74 162.121 73.9433 162.008 73.83C161.895 73.71 161.838 73.5633 161.838 73.39V67.21C161.838 67.0367 161.895 66.8933 162.008 66.78C162.128 66.66 162.275 66.6 162.448 66.6C162.615 66.6 162.755 66.66 162.868 66.78C162.981 66.8933 163.038 67.0367 163.038 67.21V73.39ZM169.136 71.2C169.129 71.36 169.066 71.49 168.946 71.59C168.826 71.69 168.686 71.74 168.526 71.74H165.226C165.306 72.1333 165.489 72.4433 165.776 72.67C166.062 72.89 166.386 73 166.746 73C167.019 73 167.232 72.9767 167.386 72.93C167.539 72.8767 167.659 72.8233 167.746 72.77C167.839 72.71 167.902 72.67 167.936 72.65C168.056 72.59 168.169 72.56 168.276 72.56C168.416 72.56 168.536 72.61 168.636 72.71C168.736 72.81 168.786 72.9267 168.786 73.06C168.786 73.24 168.692 73.4033 168.506 73.55C168.319 73.7033 168.069 73.8333 167.756 73.94C167.442 74.0467 167.126 74.1 166.806 74.1C166.246 74.1 165.756 73.9833 165.336 73.75C164.922 73.5167 164.602 73.1967 164.376 72.79C164.149 72.3767 164.036 71.9133 164.036 71.4C164.036 70.8267 164.156 70.3233 164.396 69.89C164.636 69.4567 164.952 69.1267 165.346 68.9C165.739 68.6667 166.159 68.55 166.606 68.55C167.046 68.55 167.459 68.67 167.846 68.91C168.239 69.15 168.552 69.4733 168.786 69.88C169.019 70.2867 169.136 70.7267 169.136 71.2ZM166.606 69.65C165.832 69.65 165.376 70.0133 165.236 70.74H167.856V70.67C167.829 70.39 167.692 70.15 167.446 69.95C167.199 69.75 166.919 69.65 166.606 69.65Z" fill="white"/>
<path d="M164.82 34.7807L165.95 35.9104C166 35.9603 166.059 35.9999 166.124 36.0269C166.189 36.0539 166.259 36.0678 166.329 36.0678C166.399 36.0678 166.469 36.0539 166.534 36.0269C166.599 35.9999 166.658 35.9603 166.708 35.9104L167.838 34.7807C167.888 34.731 167.927 34.6719 167.954 34.6068C167.981 34.5418 167.995 34.4721 167.995 34.4016C167.995 34.3312 167.981 34.2615 167.954 34.1965C167.927 34.1314 167.888 34.0723 167.838 34.0225L166.708 32.8928C166.658 32.8431 166.599 32.8036 166.534 32.7767C166.469 32.7497 166.4 32.7359 166.329 32.7359C166.259 32.7359 166.189 32.7497 166.124 32.7767C166.059 32.8036 166 32.8431 165.951 32.8928L164.821 34.0202C164.771 34.0698 164.731 34.129 164.703 34.1942C164.676 34.2595 164.662 34.3295 164.662 34.4003C164.662 34.471 164.676 34.5411 164.703 34.6064C164.73 34.6717 164.77 34.731 164.82 34.7807Z" fill="white"/>
<path d="M175.033 44.9984V25.1048C175.033 24.9988 175.002 24.8953 174.943 24.8072C174.884 24.7191 174.801 24.6504 174.703 24.6099C174.605 24.5693 174.497 24.5587 174.393 24.5794C174.289 24.6001 174.194 24.6511 174.119 24.7261L168.597 30.2476C168.588 30.256 168.58 30.2651 168.572 30.2747L167.655 31.1919C167.605 31.2416 167.565 31.3006 167.538 31.3656C167.511 31.4305 167.498 31.5002 167.498 31.5706C167.498 31.641 167.511 31.7106 167.538 31.7756C167.565 31.8406 167.605 31.8996 167.655 31.9493L168.785 33.079C168.834 33.1289 168.893 33.1685 168.958 33.1955C169.023 33.2225 169.093 33.2364 169.164 33.2364C169.234 33.2364 169.304 33.2225 169.369 33.1955C169.434 33.1685 169.493 33.1289 169.543 33.079L170.672 31.9493C170.677 31.9454 170.681 31.9411 170.684 31.9365L171.828 30.7932C171.871 30.7511 171.924 30.722 171.983 30.7091C172.042 30.6962 172.103 30.7001 172.159 30.7204C172.216 30.7407 172.266 30.7765 172.303 30.8237C172.34 30.8709 172.363 30.9276 172.369 30.9874C172.371 31.0073 172.371 31.0273 172.369 31.0473V42.1046C172.371 42.247 172.428 42.3831 172.529 42.4833L175.033 44.9984Z" fill="white"/>
<path d="M152.093 27.7085L174.224 49.8392C174.3 49.9167 174.397 49.9693 174.504 49.9901C174.61 50.0108 174.72 49.9988 174.82 49.9554C174.919 49.9121 175.003 49.8396 175.061 49.7475C175.118 49.6554 175.146 49.5481 175.141 49.4397L175.03 47.0748C175.023 46.941 174.966 46.8147 174.87 46.7209L152.739 24.5902C152.663 24.5144 152.565 24.4634 152.46 24.4437C152.354 24.4241 152.244 24.4368 152.146 24.4802C152.047 24.5235 151.964 24.5956 151.907 24.6869C151.85 24.7782 151.822 24.8845 151.826 24.9921L151.937 27.357C151.944 27.4894 151.999 27.6147 152.093 27.7085V27.7085Z" fill="white"/>
<path d="M152.886 49.7505L160.071 42.5648C160.118 42.5178 160.182 42.4913 160.249 42.4913C160.315 42.4913 160.379 42.5178 160.426 42.5648L160.95 43.0889C160.972 43.111 161 43.1266 161.031 43.1339C161.061 43.1412 161.093 43.14 161.123 43.1303C161.153 43.1207 161.18 43.103 161.2 43.0792C161.221 43.0554 161.234 43.0264 161.239 42.9954L161.537 41.0987L161.771 39.5999C161.786 39.5154 161.78 39.4287 161.754 39.3468C161.729 39.265 161.685 39.1902 161.625 39.1285L161.603 39.1062C161.541 39.0466 161.466 39.0023 161.384 38.9768C161.302 38.9512 161.215 38.9452 161.131 38.9592L159.673 39.1877L157.736 39.4913C157.705 39.4961 157.676 39.5095 157.652 39.5299C157.628 39.5504 157.61 39.5771 157.6 39.6071C157.591 39.6371 157.589 39.6692 157.597 39.6998C157.604 39.7304 157.62 39.7583 157.643 39.7805L158.185 40.323C158.232 40.37 158.258 40.4338 158.258 40.5003C158.258 40.5668 158.232 40.6306 158.185 40.6777C158.18 40.6816 158.176 40.6859 158.171 40.6905L157.042 41.8202C157.037 41.8241 157.033 41.8284 157.03 41.833L156.297 42.5688C156.293 42.5724 156.288 42.5764 156.284 42.5808L155.553 43.3118C155.549 43.3164 155.544 43.3207 155.539 43.3246L155.18 43.6833C155.137 43.7252 155.083 43.7541 155.025 43.7668C154.966 43.7795 154.905 43.7755 154.849 43.7551C154.792 43.7348 154.743 43.699 154.706 43.6518C154.669 43.6047 154.646 43.548 154.639 43.4884V32.3679C154.639 32.2972 154.625 32.2273 154.597 32.1622C154.57 32.0971 154.53 32.038 154.48 31.9884L151.969 29.4757V49.3694C151.968 49.476 151.999 49.5805 152.058 49.6695C152.117 49.7585 152.201 49.8279 152.299 49.8688C152.397 49.9098 152.506 49.9204 152.61 49.8993C152.715 49.8782 152.811 49.8264 152.886 49.7505V49.7505Z" fill="white"/>
</svg>
