<svg width="74" height="74" viewBox="0 0 74 74" fill="none" xmlns="http://www.w3.org/2000/svg">
<path d="M39.1496 33.0842L40.9662 34.9008C41.0461 34.981 41.1411 35.0446 41.2457 35.088C41.3503 35.1315 41.4625 35.1538 41.5758 35.1538C41.689 35.1538 41.8012 35.1315 41.9058 35.088C42.0104 35.0446 42.1054 34.981 42.1854 34.9008L44.002 33.0842C44.082 33.0041 44.1455 32.9091 44.1889 32.8045C44.2322 32.6999 44.2545 32.5878 44.2545 32.4746C44.2545 32.3614 44.2322 32.2492 44.1889 32.1446C44.1455 32.0401 44.082 31.945 44.002 31.865L42.1854 30.0484C42.1054 29.9683 42.0105 29.9049 41.906 29.8616C41.8015 29.8182 41.6895 29.796 41.5764 29.796C41.4633 29.796 41.3513 29.8182 41.2468 29.8616C41.1423 29.9049 41.0474 29.9683 40.9674 30.0484L39.1508 31.8611C39.0698 31.941 39.0054 32.0361 38.9615 32.1411C38.9175 32.246 38.8948 32.3586 38.8947 32.4724C38.8945 32.5861 38.917 32.6988 38.9608 32.8038C39.0045 32.9088 39.0687 33.0041 39.1496 33.0842Z" fill="black"/>
<path d="M55.5721 49.5145V17.5249C55.5722 17.3546 55.5218 17.188 55.4273 17.0464C55.3327 16.9047 55.1982 16.7943 55.0408 16.7291C54.8835 16.6639 54.7103 16.6468 54.5433 16.6801C54.3762 16.7134 54.2228 16.7954 54.1024 16.9159L45.2224 25.7947C45.2081 25.8082 45.1947 25.8228 45.1825 25.8383L43.7077 27.3132C43.6275 27.3931 43.5639 27.4879 43.5205 27.5925C43.4771 27.697 43.4547 27.809 43.4547 27.9222C43.4547 28.0353 43.4771 28.1474 43.5205 28.2519C43.5639 28.3564 43.6275 28.4513 43.7077 28.5311L45.5243 30.3477C45.6042 30.4279 45.6992 30.4916 45.8039 30.535C45.9085 30.5784 46.0206 30.6008 46.1339 30.6008C46.2471 30.6008 46.3593 30.5784 46.4639 30.535C46.5685 30.4916 46.6635 30.4279 46.7435 30.3477L48.5601 28.5311C48.567 28.5248 48.5735 28.5179 48.5794 28.5106L50.4178 26.6721C50.4867 26.6044 50.5733 26.5576 50.6677 26.5368C50.762 26.5161 50.8603 26.5224 50.9512 26.555C51.0422 26.5876 51.1221 26.6452 51.1818 26.7211C51.2415 26.797 51.2786 26.8883 51.2888 26.9843C51.2909 27.0164 51.2909 27.0486 51.2888 27.0807V44.8612C51.2907 45.0902 51.3831 45.3091 51.5458 45.4702L55.5721 49.5145Z" fill="black"/>
<path d="M18.6837 21.7118L54.2705 57.2986C54.3925 57.4233 54.5496 57.5079 54.7208 57.5413C54.892 57.5746 55.0693 57.5552 55.2292 57.4856C55.3892 57.4159 55.5242 57.2993 55.6163 57.1512C55.7085 57.0031 55.7535 56.8305 55.7453 56.6562L55.5668 52.8535C55.5555 52.6383 55.4638 52.4351 55.3098 52.2843L19.723 16.6975C19.6001 16.5756 19.4434 16.4935 19.2731 16.462C19.1029 16.4304 18.9272 16.4508 18.7687 16.5206C18.6103 16.5903 18.4765 16.7061 18.3848 16.8529C18.2931 16.9997 18.2477 17.1708 18.2546 17.3437L18.4332 21.1465C18.4437 21.3595 18.5329 21.561 18.6837 21.7118Z" fill="black"/>
<path d="M19.9582 57.156L31.513 45.6012C31.5887 45.5256 31.6913 45.4831 31.7982 45.4831C31.9052 45.4831 32.0078 45.5256 32.0834 45.6012L32.9262 46.444C32.962 46.4796 33.0069 46.5046 33.056 46.5164C33.1051 46.5281 33.1565 46.5261 33.2046 46.5106C33.2526 46.495 33.2954 46.4666 33.3284 46.4283C33.3613 46.3901 33.3831 46.3435 33.3913 46.2937L33.8692 43.2437L34.2469 40.8336C34.2697 40.6977 34.2603 40.5583 34.2195 40.4266C34.1787 40.295 34.1075 40.1748 34.0118 40.0756L33.9758 40.0396C33.8764 39.9438 33.756 39.8726 33.6242 39.8315C33.4924 39.7905 33.3528 39.7808 33.2166 39.8033L30.8732 40.1707L27.7578 40.6589C27.7077 40.6667 27.6608 40.6882 27.6222 40.7211C27.5837 40.754 27.555 40.7969 27.5394 40.8451C27.5238 40.8933 27.5219 40.9449 27.5339 40.9942C27.546 41.0434 27.5714 41.0883 27.6075 41.1239L28.4798 41.9963C28.5554 42.0719 28.5979 42.1745 28.5979 42.2815C28.5979 42.3884 28.5554 42.491 28.4798 42.5667C28.472 42.573 28.4647 42.5799 28.4579 42.5872L26.6414 44.4038C26.6344 44.4102 26.628 44.4171 26.6221 44.4244L25.444 45.6076C25.4366 45.6135 25.4298 45.6199 25.4234 45.6269L24.2479 46.8024C24.2407 46.8098 24.233 46.8167 24.2248 46.823L23.648 47.3998C23.5789 47.4671 23.4923 47.5137 23.398 47.5341C23.3038 47.5545 23.2057 47.548 23.115 47.5153C23.0242 47.4826 22.9445 47.4251 22.885 47.3492C22.8254 47.2733 22.7884 47.1822 22.7782 47.0863V29.2043C22.7777 29.0907 22.7547 28.9783 22.7107 28.8735C22.6666 28.7688 22.6022 28.6738 22.5213 28.5941L18.4847 24.5536V56.5432C18.483 56.7146 18.5326 56.8827 18.627 57.0258C18.7215 57.1689 18.8565 57.2805 19.0149 57.3463C19.1732 57.4122 19.3476 57.4292 19.5156 57.3953C19.6837 57.3614 19.8378 57.2781 19.9582 57.156Z" fill="black"/>
</svg>
